<svg width="64" height="64" viewBox="0 0 64 64" fill="none" xmlns="http://www.w3.org/2000/svg">
<circle cx="32" cy="32" r="32" fill="#181EA9"/>
<path d="M38.3646 18.1622L35.4606 21.041C34.4758 20.3452 33.2726 19.9328 31.9728 19.9328C28.6509 19.9328 25.9463 22.6137 25.9463 25.9112C25.9463 28.8671 28.1217 31.3292 30.967 31.8042V33.9664C28.1217 34.4414 25.9463 36.9035 25.9463 39.8594C25.9463 43.1548 28.6488 45.8378 31.9728 45.8378C35.2968 45.8378 37.9993 43.1569 37.9993 39.8594C37.9993 36.9035 35.8239 34.4414 32.9786 33.9664V31.8042C35.8239 31.3292 37.9993 28.8671 37.9993 25.9112C37.9993 24.6218 37.5835 23.4282 36.8822 22.4512L39.7841 19.5703L38.3646 18.1622ZM35.9897 39.8594C35.9897 42.0571 34.1881 43.8443 31.9728 43.8443C29.7575 43.8443 27.9558 42.0571 27.9558 39.8594C27.9558 37.6618 29.7575 35.8745 31.9728 35.8745C34.1881 35.8745 35.9897 37.6618 35.9897 39.8594ZM31.9728 29.8961C29.7575 29.8961 27.9558 28.1088 27.9558 25.9112C27.9558 23.7135 29.7575 21.9263 31.9728 21.9263C34.1881 21.9263 35.9897 23.7135 35.9897 25.9112C35.9897 28.1088 34.1881 29.8961 31.9728 29.8961Z" fill="white"/>
</svg>